<?xml version="1.0" standalone="no"?>
<!DOCTYPE svg PUBLIC "-//W3C//DTD SVG 20010904//EN"
 "http://www.w3.org/TR/2001/REC-SVG-20010904/DTD/svg10.dtd">
<svg version="1.0" xmlns="http://www.w3.org/2000/svg"
 width="1536.000000pt" height="1024.000000pt" viewBox="0 0 1536.000000 1024.000000"
 preserveAspectRatio="xMidYMid meet">

<g transform="translate(0.000000,1024.000000) scale(0.100000,-0.100000)"
fill="#000000" stroke="none">
<path d="M2755 6443 c-71 -6 -233 -43 -301 -69 -306 -115 -563 -363 -688 -666
-138 -334 -121 -729 46 -1050 117 -226 339 -435 579 -547 323 -151 710 -147
1034 8 347 166 603 490 682 861 24 113 24 390 -1 498 -86 384 -316 680 -660
848 -203 98 -441 139 -691 117z m945 -538 c11 -13 8 -42 -11 -155 l-23 -140
-269 0 c-158 0 -276 -4 -287 -10 -10 -5 -23 -25 -29 -42 -6 -18 -40 -209 -76
-423 -35 -215 -78 -457 -94 -539 -42 -208 -31 -200 -254 -206 -94 -3 -177 -4
-184 -2 -8 2 -8 13 -2 35 16 54 76 368 128 667 28 157 59 329 71 384 11 54 20
107 20 117 0 18 -13 19 -305 19 -237 0 -305 3 -305 13 0 34 51 251 62 264 7 9
21 19 33 23 11 5 356 9 766 9 657 1 748 -1 759 -14z"/>
<path d="M11560 5330 l0 -500 95 0 95 0 0 500 0 500 -95 0 -95 0 0 -500z"/>
<path d="M4500 5705 l0 -75 135 0 135 0 0 -400 0 -400 98 0 97 0 0 397 0 398
128 3 127 3 0 74 0 75 -360 0 -360 0 0 -75z"/>
<path d="M10110 5670 l0 -100 -55 0 -55 0 0 -75 0 -75 54 0 54 0 4 -227 c3
-248 6 -260 65 -314 49 -45 135 -64 243 -52 l60 6 0 72 0 72 -62 7 c-72 7
-110 30 -119 72 -4 16 -7 104 -8 197 l-1 167 95 0 96 0 -3 76 -3 77 -93 -2
-93 -2 3 100 3 101 -92 0 -93 0 0 -100z"/>
<path d="M5585 5571 c-22 -10 -55 -34 -72 -54 -18 -21 -34 -37 -36 -37 -2 0
-2 23 1 52 l5 51 -33 -6 c-18 -4 -61 -7 -96 -7 l-64 0 0 -370 0 -370 95 0 95
0 0 223 c0 211 1 225 23 267 29 59 88 90 169 90 l58 0 0 90 0 90 -52 0 c-29 0
-71 -9 -93 -19z"/>
<path d="M6009 5567 c-96 -40 -150 -94 -197 -194 -24 -53 -27 -69 -27 -173 0
-110 1 -118 33 -182 54 -110 146 -179 265 -198 108 -17 203 10 271 76 l36 35
0 -51 0 -50 90 0 90 0 0 373 0 372 -90 -3 -90 -3 0 -47 0 -46 -32 34 c-50 51
-110 73 -208 77 -72 3 -94 0 -141 -20z m233 -147 c109 -31 172 -166 137 -294
-16 -58 -85 -121 -147 -135 -57 -12 -100 -7 -152 19 -73 37 -115 120 -107 210
14 153 129 238 269 200z"/>
<path d="M7059 5581 c-41 -13 -72 -31 -106 -64 l-33 -31 0 42 0 42 -74 0 c-41
0 -81 3 -90 6 -14 6 -16 -31 -16 -370 l0 -376 89 0 89 0 4 238 c3 218 5 240
24 272 33 56 77 80 148 80 76 0 116 -23 148 -82 22 -41 23 -52 23 -275 l0
-233 93 0 93 0 -3 268 -3 268 -33 66 c-37 76 -84 120 -151 143 -47 16 -158 19
-202 6z"/>
<path d="M7734 5570 c-94 -37 -154 -117 -154 -204 0 -60 19 -105 60 -139 43
-37 82 -52 196 -77 139 -30 178 -54 172 -106 -11 -91 -206 -95 -253 -5 l-16
31 -90 0 -91 0 7 -32 c17 -81 71 -150 145 -188 87 -44 250 -44 345 1 135 64
175 253 73 345 -38 35 -81 53 -195 80 -159 38 -196 64 -172 117 33 72 206 58
225 -18 6 -24 8 -25 95 -25 99 0 100 1 75 71 -21 59 -64 107 -124 136 -77 37
-220 44 -298 13z"/>
<path d="M8525 5576 c-61 -19 -97 -41 -143 -85 -144 -140 -148 -411 -8 -559
60 -64 119 -96 204 -112 105 -19 194 6 266 73 l36 34 0 -48 0 -49 95 0 95 0
-2 372 -3 371 -90 -1 -90 0 -3 -46 -3 -46 -34 34 c-67 67 -214 95 -320 62z
m210 -157 c50 -14 120 -84 134 -136 46 -163 -43 -299 -193 -298 -77 1 -136 30
-173 87 -22 33 -28 55 -31 114 -5 82 8 131 46 176 50 59 131 81 217 57z"/>
<path d="M9443 5571 c-64 -24 -135 -72 -163 -111 -11 -16 -33 -55 -48 -87 -24
-52 -27 -69 -27 -168 0 -99 3 -116 28 -171 34 -73 113 -155 177 -183 100 -44
238 -47 333 -7 77 32 161 133 183 220 l6 26 -88 0 -89 -1 -20 -32 c-69 -110
-256 -95 -314 26 -31 63 -37 132 -17 199 20 69 48 105 100 129 81 37 159 19
218 -50 l35 -41 81 0 c78 0 82 1 82 23 0 35 -44 119 -81 154 -19 17 -59 44
-89 59 -75 37 -227 45 -307 15z"/>
<path d="M10813 5576 c-252 -79 -337 -445 -149 -645 31 -33 74 -65 111 -82 52
-25 71 -29 150 -29 105 0 157 19 218 78 l39 37 -4 -53 -3 -52 93 0 92 0 -2
371 -3 371 -90 0 -90 0 1 -46 c0 -25 -1 -46 -2 -46 -1 0 -19 16 -40 35 -74 68
-213 94 -321 61z m225 -162 c86 -35 131 -110 132 -215 0 -50 -6 -76 -23 -110
-69 -130 -266 -142 -351 -21 -24 34 -30 54 -34 116 -4 67 -2 82 22 131 28 56
65 90 114 105 44 13 100 11 140 -6z"/>
<path d="M13613 5576 c-91 -29 -176 -107 -221 -204 -24 -51 -27 -69 -26 -162
0 -137 23 -198 103 -279 66 -68 125 -98 216 -112 166 -26 320 50 387 191 15
30 25 57 23 60 -2 3 -46 4 -99 2 -69 -2 -96 -7 -96 -16 0 -16 -37 -49 -73 -64
-35 -15 -126 -16 -164 -1 -52 19 -92 68 -107 132 l-6 27 281 0 282 0 -6 78
c-12 180 -101 303 -251 347 -60 18 -186 18 -243 1z m214 -163 c41 -19 72 -62
80 -108 l6 -35 -177 0 c-171 0 -176 1 -176 20 0 28 23 70 53 98 55 52 138 61
214 25z"/>
<path d="M11834 5565 c39 -93 278 -650 290 -675 l17 -35 -75 -182 -75 -183 98
0 98 0 22 53 c21 48 135 324 337 816 46 112 84 207 84 210 0 3 -45 6 -100 6
l-100 0 -29 -75 c-16 -41 -57 -155 -92 -252 -56 -156 -79 -204 -79 -168 0 14
-180 473 -189 482 -10 11 -212 14 -207 3z"/>
<path d="M12704 5571 c-2 -2 -4 -37 -4 -78 l0 -73 166 0 c144 0 165 -2 160
-15 -3 -8 -47 -68 -99 -133 -51 -64 -123 -155 -160 -202 l-67 -85 0 -77 0 -78
285 0 285 0 0 75 0 75 -180 0 -181 0 79 98 c43 53 124 156 179 229 l102 131 2
67 2 67 -282 1 c-156 1 -285 0 -287 -2z"/>
</g>
</svg>
